<svg xmlns="http://www.w3.org/2000/svg" width="3633" height="3633" viewBox="0 0 3633 3633" version="1.1"><path d="M 1749.500 0.668 C 1616.507 5.925, 1493.502 23.578, 1367.500 55.491 C 987.133 151.829, 645.104 372.525, 398.103 681 C 169.026 967.090, 33.094 1310.696, 5.071 1674.500 C 0.825 1729.620, 0.499 1739.862, 0.526 1817.500 C 0.553 1897.097, 1.170 1914.362, 6.044 1972 C 36.772 2335.355, 176.536 2680.921, 407.054 2963.500 C 477.370 3049.696, 558.141 3132.028, 643 3204.009 C 732.015 3279.515, 831.319 3348.222, 934.627 3405.783 C 1161.975 3532.457, 1415.686 3608.618, 1676.500 3628.486 C 1720.428 3631.832, 1731.121 3632.197, 1800 3632.698 C 1874.818 3633.242, 1898.981 3632.637, 1950 3628.940 C 2232.493 3608.471, 2504.840 3522.671, 2747.407 3377.726 C 2910.363 3280.352, 3059.462 3155.928, 3184.397 3013.057 C 3346.172 2828.057, 3467.762 2614.899, 3543.801 2382.995 C 3580.056 2272.421, 3605.593 2158.188, 3619.918 2042.500 C 3625.120 2000.491, 3628.759 1958.433, 3632.162 1901 C 3633.809 1873.207, 3634.453 1767.901, 3633.083 1750.500 C 3632.477 1742.800, 3631.527 1727.275, 3630.971 1716 C 3627.426 1644.009, 3617.734 1561.876, 3603.890 1486.500 C 3544.060 1160.754, 3395.752 857.654, 3174.526 609 C 3123.941 552.144, 3058.024 487.376, 3000.707 438.213 C 2881.703 336.139, 2747.099 247.501, 2612 182.247 C 2382.803 71.545, 2147.603 12.343, 1892 1.017 C 1872.403 0.149, 1769.042 -0.104, 1749.500 0.668 M 2897 1322.585 C 2692.675 1440.574, 2525.197 1537.423, 2524.826 1537.805 C 2524.456 1538.187, 2525.271 1541.200, 2526.639 1544.500 C 2531.336 1555.836, 2544.887 1597.518, 2549.883 1616 C 2582.273 1735.813, 2585.194 1860.855, 2558.445 1982.500 C 2526.981 2125.584, 2452.869 2258.359, 2346.892 2361.508 C 2245.939 2459.767, 2118.821 2528.468, 1982.500 2558.445 C 1825.495 2592.970, 1662.134 2577.774, 1516.084 2515.060 C 1405.816 2467.711, 1302.619 2390.086, 1228.959 2299.085 C 1222.375 2290.950, 1221.487 2290.203, 1219.592 2291.205 C 1211.326 2295.577, 479.191 2718.544, 478.065 2719.598 C 476.166 2721.376, 476.160 2721.366, 493.202 2745.500 C 593.091 2886.959, 712.883 3010.178, 850.500 3113.020 C 1086.238 3289.188, 1365.456 3397.533, 1657 3425.965 C 1713.755 3431.499, 1754.509 3433.397, 1816.500 3433.392 C 1870.476 3433.388, 1895.222 3432.506, 1941.500 3428.935 C 2266.466 3403.867, 2572.900 3282.652, 2827.496 3078.465 C 2874.327 3040.907, 2912.994 3006.079, 2959.537 2959.537 C 3006.079 2912.994, 3040.907 2874.327, 3078.465 2827.496 C 3282.652 2572.900, 3403.867 2266.466, 3428.935 1941.500 C 3432.506 1895.222, 3433.388 1870.476, 3433.392 1816.500 C 3433.396 1765.353, 3432.619 1742.040, 3429.443 1698 C 3415.222 1500.868, 3364.631 1307.894, 3280.009 1128 C 3271.914 1110.792, 3270.377 1107.970, 3269.128 1108.030 C 3268.782 1108.046, 3101.325 1204.596, 2897 1322.585 M 1789.464 1271.049 C 1681.357 1276.393, 1577.387 1314.042, 1489.500 1379.672 C 1450.451 1408.831, 1408.831 1450.451, 1379.672 1489.500 C 1358.876 1517.349, 1342.690 1543.690, 1327.099 1575.055 C 1276.365 1677.125, 1259.177 1791.697, 1277.602 1905 C 1291.534 1990.676, 1326.255 2072.258, 1378.706 2142.555 C 1408.332 2182.263, 1450.803 2224.669, 1491.500 2255.178 C 1609.067 2343.316, 1760.984 2379.984, 1906.870 2355.438 C 2005.169 2338.898, 2097.066 2295.611, 2173.500 2229.844 C 2188.893 2216.600, 2216.600 2188.893, 2229.844 2173.500 C 2346.545 2037.870, 2389.744 1856.638, 2346.522 1684 C 2326.697 1604.818, 2291.353 1535.204, 2237.110 1468.500 C 2224.011 1452.392, 2183.753 1411.897, 2167.055 1398.033 C 2098.255 1340.909, 2021.530 1302.916, 1936 1283.619 C 1888.352 1272.869, 1838.740 1268.613, 1789.464 1271.049 M 0.470 1817 C 0.470 1850.825, 0.596 1864.662, 0.749 1847.750 C 0.903 1830.838, 0.903 1803.162, 0.749 1786.250 C 0.596 1769.338, 0.470 1783.175, 0.470 1817" stroke="none" fill="#343334" fill-rule="evenodd"/><path d="M 2897 1322.585 C 2692.675 1440.574, 2525.197 1537.423, 2524.826 1537.805 C 2524.456 1538.187, 2525.271 1541.200, 2526.639 1544.500 C 2531.336 1555.836, 2544.887 1597.518, 2549.883 1616 C 2582.273 1735.813, 2585.194 1860.855, 2558.445 1982.500 C 2526.981 2125.584, 2452.869 2258.359, 2346.892 2361.508 C 2245.939 2459.767, 2118.821 2528.468, 1982.500 2558.445 C 1825.495 2592.970, 1662.134 2577.774, 1516.084 2515.060 C 1405.816 2467.711, 1302.619 2390.086, 1228.959 2299.085 C 1222.375 2290.950, 1221.487 2290.203, 1219.592 2291.205 C 1211.326 2295.577, 479.191 2718.544, 478.065 2719.598 C 476.166 2721.376, 476.160 2721.366, 493.202 2745.500 C 593.091 2886.959, 712.883 3010.178, 850.500 3113.020 C 1086.238 3289.188, 1365.456 3397.533, 1657 3425.965 C 1713.755 3431.499, 1754.509 3433.397, 1816.500 3433.392 C 1870.476 3433.388, 1895.222 3432.506, 1941.500 3428.935 C 2266.466 3403.867, 2572.900 3282.652, 2827.496 3078.465 C 2874.327 3040.907, 2912.994 3006.079, 2959.537 2959.537 C 3006.079 2912.994, 3040.907 2874.327, 3078.465 2827.496 C 3282.652 2572.900, 3403.867 2266.466, 3428.935 1941.500 C 3432.506 1895.222, 3433.388 1870.476, 3433.392 1816.500 C 3433.396 1765.353, 3432.619 1742.040, 3429.443 1698 C 3415.222 1500.868, 3364.631 1307.894, 3280.009 1128 C 3271.914 1110.792, 3270.377 1107.970, 3269.128 1108.030 C 3268.782 1108.046, 3101.325 1204.596, 2897 1322.585 M 1789.464 1271.049 C 1681.357 1276.393, 1577.387 1314.042, 1489.500 1379.672 C 1450.451 1408.831, 1408.831 1450.451, 1379.672 1489.500 C 1358.876 1517.349, 1342.690 1543.690, 1327.099 1575.055 C 1276.365 1677.125, 1259.177 1791.697, 1277.602 1905 C 1291.534 1990.676, 1326.255 2072.258, 1378.706 2142.555 C 1408.332 2182.263, 1450.803 2224.669, 1491.500 2255.178 C 1609.067 2343.316, 1760.984 2379.984, 1906.870 2355.438 C 2005.169 2338.898, 2097.066 2295.611, 2173.500 2229.844 C 2188.893 2216.600, 2216.600 2188.893, 2229.844 2173.500 C 2346.545 2037.870, 2389.744 1856.638, 2346.522 1684 C 2326.697 1604.818, 2291.353 1535.204, 2237.110 1468.500 C 2224.011 1452.392, 2183.753 1411.897, 2167.055 1398.033 C 2098.255 1340.909, 2021.530 1302.916, 1936 1283.619 C 1888.352 1272.869, 1838.740 1268.613, 1789.464 1271.049" stroke="none" fill="#fcfcfc" fill-rule="evenodd"/></svg>